<svg width="160" height="119" viewBox="0 0 160 119" fill="none" xmlns="http://www.w3.org/2000/svg">
<path d="M75.3905 99.1601L69.3205 118.64C68.2605 120 64.9805 113.74 57.1805 112.71C51.8605 112 47.7605 114.16 47.4105 112.46C47.1105 111.04 49.7105 108.19 51.7705 106.77C56.8405 103.29 61.9705 106.24 62.6905 106.67C62.8805 106.78 63.2605 107.01 63.7305 107.38C64.9605 108.33 66.0305 109.55 66.8905 110.84L72.2005 94.6201L75.3905 99.1601Z" fill="#602526"/>
<path d="M61.2509 94.0899L55.6609 112.01C54.6809 113.26 51.6709 107.5 44.4909 106.55C39.6009 105.9 35.8209 107.88 35.5009 106.32C35.2209 105.01 37.6209 102.39 39.5109 101.09C44.1809 97.8899 48.8909 100.6 49.5609 101C49.7309 101.1 50.081 101.32 50.521 101.66C51.651 102.54 52.6309 103.65 53.4309 104.84L58.3209 89.9199L61.2609 94.0999L61.2509 94.0899Z" fill="#602526"/>
<path d="M26.3405 29.0501C21.1205 27.3501 10.2104 31.0801 0.94043 39.2201C7.00043 45.4101 19.7505 46.4801 26.3405 43.1701C33.8105 39.4201 31.7905 30.8301 26.3405 29.0501Z" fill="#602526"/>
<path d="M134.34 68.5101C134.37 68.8601 134.37 69.2201 134.37 69.5801C134.37 86.5701 111.96 100.34 84.3201 100.34C56.6801 100.34 36.9602 86.3501 34.2802 69.5801C33.6002 65.3301 33.5301 61.6601 34.0001 58.5101C24.6501 52.8801 17.6201 44.1501 17.6201 33.9701C17.6201 16.1001 39.2901 0.560059 57.0901 0.560059C74.8901 0.560059 89.3001 15.0401 89.3001 32.9101C89.3001 34.9701 89.1101 36.9901 88.7301 38.9401C107.6 39.9501 123.47 47.4001 130.49 57.7001L155.38 49.1301L159.7 68.5101H134.32H134.34Z" fill="#C24444"/>
<path d="M39.1 33.77C41.9166 33.77 44.2 31.4777 44.2 28.65C44.2 25.8223 41.9166 23.53 39.1 23.53C36.2833 23.53 34 25.8223 34 28.65C34 31.4777 36.2833 33.77 39.1 33.77Z" fill="#602426"/>
<path d="M48.3608 40.92C53.4805 40.92 57.6308 39.0888 57.6308 36.83C57.6308 34.5711 53.4805 32.74 48.3608 32.74C43.2411 32.74 39.0908 34.5711 39.0908 36.83C39.0908 39.0888 43.2411 40.92 48.3608 40.92Z" fill="#E05B5A"/>
<path d="M33.4703 70.28C36.1503 87.06 55.8804 101.04 83.5104 101.04C91.9704 101.04 99.9404 99.74 106.93 97.46C106.59 96.37 104.97 95.25 101.42 94.17C88.3103 90.31 72.0004 87.32 60.3404 78.16C53.2404 73.09 44.6404 64.68 38.0504 60.7C36.4004 59.66 34.2204 58.64 32.6104 58.85C32.8004 58.97 32.9904 59.09 33.1904 59.21C32.7204 62.36 32.7903 66.03 33.4703 70.28Z" fill="#E5E0C7"/>
<path d="M142.141 64.0402C139.271 79.4002 122.851 89.2002 105.471 85.9302C88.0907 82.6502 76.3307 67.5402 79.2007 52.1802C82.0707 36.8202 145.021 48.6802 142.151 64.0402H142.141Z" fill="#943737"/>
</svg>
